<?xml version="1.0" encoding="utf-8"?>
<!-- Generator: Adobe Illustrator 16.0.0, SVG Export Plug-In . SVG Version: 6.00 Build 0)  -->
<!DOCTYPE svg PUBLIC "-//W3C//DTD SVG 1.1//EN" "http://www.w3.org/Graphics/SVG/1.1/DTD/svg11.dtd">
<svg version="1.1" id="图层_1" xmlns="http://www.w3.org/2000/svg" xmlns:xlink="http://www.w3.org/1999/xlink" x="0px" y="0px"
	 width="500px" height="500px" viewBox="0 0 500 500" enable-background="new 0 0 500 500" xml:space="preserve">
<g>
	<polygon points="230.367,179.834 230.367,223.913 306.683,223.913 277.482,179.834 	"/>
	<polygon points="173.295,179.834 146.485,223.913 216.551,223.913 216.551,179.834 	"/>
	<path d="M249.979,0.521C111.919,0.521,0,112.44,0,250.5c0,138.06,111.919,249.979,249.979,249.979
		c138.06,0,249.979-111.92,249.979-249.979C499.959,112.44,388.039,0.521,249.979,0.521z M147.001,343.892
		c-19.269,0-34.89-15.622-34.89-34.891c0-19.271,15.622-34.89,34.89-34.89c19.269,0,34.89,15.619,34.89,34.89
		C181.891,328.27,166.27,343.892,147.001,343.892z M352.078,343.892c-19.27,0-34.891-15.622-34.891-34.891
		c0-19.271,15.621-34.89,34.891-34.89c19.269,0,34.889,15.619,34.889,34.89C386.967,328.27,371.347,343.892,352.078,343.892z
		 M415.236,312.728h-12.055c0.133-1.544,0.212-3.101,0.212-4.682c0-28.521-22.387-51.644-50-51.644
		c-27.615,0-50.001,23.123-50.001,51.644c0,1.581,0.081,3.138,0.214,4.682h-46.265h-59.87c0-28.521-22.385-51.644-50-51.644
		c-27.615,0-50,23.122-50,51.644h-5.263l-9.21-9.21v-67.764c0-8.551,42.105-13.156,42.105-13.156l35.527-55.82h128.948
		l46.053,56.478h21.71c41.447,3.288,57.896,17.763,57.895,17.763V312.728z"/>
</g>
</svg>
